<svg width="183" height="25" viewBox="0 0 183 25" fill="none" xmlns="http://www.w3.org/2000/svg">
<path d="M21.7261 0.241865C21.048 0.175902 20.4401 0.109938 19.9258 0.0659629C19.388 0.0219875 18.9204 0 18.4762 0C17.9384 0 17.4006 0.0219875 16.8863 0.0659629C16.3485 0.109938 15.7874 0.153914 15.1795 0.241865L10.1059 15.4573C11.9529 15.2155 14.1507 14.7757 16.1381 14.27L18.3125 6.44239L20.066 13.0827C21.9833 12.445 23.7602 11.8953 25.3735 11.2797L21.7261 0.241865Z" fill="#313BAC"/>
<path d="M40.267 6.53033L33.3697 15.3694L32.7618 12.2471C30.7043 13.3685 28.5766 14.3799 26.3788 15.2814L29.4885 24.7142C28.1558 24.912 26.9867 25 25.9814 25C25.5138 25 25.0461 24.978 24.5785 24.934C24.1109 24.8901 23.6199 24.8241 23.0822 24.7361L22.1002 21.328L22.0768 21.2401L20.9779 17.2603C19.0373 17.876 17.0733 18.4257 15.1093 18.9094L14.7352 20.2287L14.6651 20.4925L13.4493 24.7361C12.9115 24.8241 12.4205 24.8901 11.9763 24.934C11.5321 24.978 11.0878 25 10.6904 25C10.2695 25 9.77852 24.978 9.24076 24.912C8.67962 24.8461 8.07172 24.7801 7.39368 24.6702L8.89005 20.1847C-1.77157 21.8777 -4.43697 17.4142 9.82528 11.6095C9.82528 11.6095 10.363 11.4116 10.9008 11.2797L10.1994 13.2586C10.1994 13.2586 9.96556 13.3025 9.77852 13.3905C9.75514 13.3905 9.75514 13.4125 9.73176 13.4125C3.51248 16.4248 5.9207 16.8865 10.176 16.3149C12.0231 16.073 14.2209 15.6332 16.2082 15.1275C17.424 14.8197 18.5463 14.4899 19.4815 14.1601C19.692 14.0941 19.9024 14.0281 20.1128 13.9402C22.03 13.3025 23.807 12.7528 25.4202 12.1372C27.7349 11.2577 29.7924 10.2902 31.5928 8.86103C31.0082 8.28935 29.7457 7.05804 29.1611 6.48636H40.267V6.53033Z" fill="#0D4CA4"/>
<path d="M40.358 21H38.5114L43.8523 6.45455H45.6705L51.0114 21H49.1648L44.8182 8.75568H44.7045L40.358 21ZM41.0398 15.3182H48.483V16.8807H41.0398V15.3182ZM53.277 21V6.45455H58.3622C59.3755 6.45455 60.2112 6.62973 60.8693 6.98011C61.5275 7.32576 62.0175 7.79214 62.3395 8.37926C62.6615 8.96165 62.8224 9.60795 62.8224 10.3182C62.8224 10.9432 62.7112 11.4593 62.4886 11.8665C62.2708 12.2737 61.982 12.5956 61.6222 12.8324C61.267 13.0691 60.8812 13.2443 60.4645 13.358V13.5C60.9096 13.5284 61.357 13.6847 61.8068 13.9688C62.2566 14.2528 62.633 14.66 62.9361 15.1903C63.2391 15.7206 63.3906 16.3693 63.3906 17.1364C63.3906 17.8655 63.2249 18.5213 62.8935 19.1037C62.562 19.6861 62.0388 20.1477 61.3239 20.4886C60.6089 20.8295 59.6785 21 58.5327 21H53.277ZM55.0384 19.4375H58.5327C59.6832 19.4375 60.5 19.215 60.983 18.7699C61.4706 18.3201 61.7145 17.7756 61.7145 17.1364C61.7145 16.6439 61.589 16.1894 61.3381 15.7727C61.0871 15.3513 60.7296 15.0152 60.2656 14.7642C59.8016 14.5085 59.2524 14.3807 58.6179 14.3807H55.0384V19.4375ZM55.0384 12.8466H58.3054C58.8357 12.8466 59.3139 12.7424 59.7401 12.5341C60.1709 12.3258 60.5118 12.0322 60.7628 11.6534C61.0185 11.2746 61.1463 10.8295 61.1463 10.3182C61.1463 9.67898 60.9238 9.13684 60.4787 8.69176C60.0336 8.24195 59.3281 8.01705 58.3622 8.01705H55.0384V12.8466ZM70.7734 21H66.2848V6.45455H70.9723C72.3833 6.45455 73.5907 6.74574 74.5945 7.32812C75.5982 7.90578 76.3677 8.73674 76.9027 9.82102C77.4377 10.9006 77.7053 12.1932 77.7053 13.6989C77.7053 15.214 77.4354 16.5185 76.8956 17.6122C76.3558 18.7012 75.5698 19.5393 74.5376 20.1264C73.5054 20.7088 72.2507 21 70.7734 21ZM68.0462 19.4375H70.6598C71.8625 19.4375 72.8591 19.2055 73.6499 18.7415C74.4406 18.2775 75.0301 17.617 75.4183 16.7599C75.8066 15.9029 76.0007 14.8826 76.0007 13.6989C76.0007 12.5246 75.8089 11.5137 75.4254 10.6662C75.0419 9.81392 74.469 9.16051 73.7067 8.70597C72.9444 8.24669 71.995 8.01705 70.8587 8.01705H68.0462V19.4375ZM80.5728 21H78.7262L84.0671 6.45455H85.8853L91.2262 21H89.3796L85.033 8.75568H84.9194L80.5728 21ZM81.2546 15.3182H88.6978V16.8807H81.2546V15.3182Z" fill="#313BAC"/>
<path d="M92.8124 21V6.03273H94.6249V19.3922H101.582V21H92.8124ZM104.389 21V6.03273H109.446C110.615 6.03273 111.575 6.23249 112.325 6.632C113.076 7.02665 113.631 7.56989 113.992 8.26174C114.352 8.95359 114.533 9.74044 114.533 10.6223C114.533 11.5042 114.352 12.2861 113.992 12.9682C113.631 13.6503 113.078 14.1863 112.333 14.5761C111.587 14.961 110.635 15.1534 109.475 15.1534H105.383V13.5164H109.417C110.216 13.5164 110.859 13.3994 111.346 13.1656C111.838 12.9317 112.194 12.6004 112.413 12.1716C112.637 11.738 112.749 11.2216 112.749 10.6223C112.749 10.023 112.637 9.49927 112.413 9.05103C112.189 8.60279 111.831 8.25687 111.339 8.01326C110.847 7.76478 110.196 7.64054 109.388 7.64054H106.201V21H104.389ZM111.434 14.2764L115.117 21H113.012L109.388 14.2764H111.434ZM117.553 21V6.03273H119.365V12.6978H127.346V6.03273H129.158V21H127.346V14.3057H119.365V21H117.553ZM132.787 6.03273H134.95L140.036 18.4567H140.212L145.298 6.03273H147.462V21H145.766V9.62838H145.62L140.943 21H139.306L134.628 9.62838H134.482V21H132.787V6.03273ZM151.71 21H149.809L155.305 6.03273H157.176L162.672 21H160.772L156.299 8.4006H156.182L151.71 21ZM152.411 15.1534H160.07V16.7612H152.411V15.1534ZM176.872 6.03273V21H175.118L166.962 9.24835H166.816V21H165.003V6.03273H166.757L174.942 17.8136H175.089V6.03273H176.872Z" fill="#0D4CA4"/>
</svg>
